<svg width="266" height="406" viewBox="0 0 266 406" fill="none" xmlns="http://www.w3.org/2000/svg">
<path d="M176.911 77.6968C178.167 78.4869 179.006 78.874 179.791 79.3668C183.005 81.6128 185.828 83.3562 187.397 88.0215C189 92.7902 191.5 103 191.5 103C191.5 103 198.485 110.026 206.5 114C211.968 116.711 225.654 118.242 229 115.219C233.126 111.492 229.617 102.724 228 100.5C224 95 234.011 90 234.011 90C234.011 90 250.584 82.0935 253.584 76.7287C254.462 75.159 239.112 80.0267 236.5 76.8101C233.308 72.8793 232.895 70.0013 229 67.34C220.396 61.4619 212.815 68.9752 202.498 70.4368C190.548 72.1298 171.811 73.835 172.034 75.6352C172.189 76.8904 173.401 78.8682 174.102 80.3277C176.148 84.5909 181.059 100.735 174.909 107.416C174.21 108.176 173.318 108.436 172.417 108.351C171.516 108.266 170.623 107.873 169.488 107.405C159.238 103.178 143.296 96.4435 138.643 98.7098C136.367 99.818 133.576 101.188 130.934 103.644C125.035 109.127 116.247 126.797 114.564 121.773C113.533 118.699 115.727 114.778 115.134 107.363C114.787 103.031 106.451 95.5917 107.581 88.5858C108.038 85.7547 108.927 83.2474 111.427 81.7835C115.365 79.477 119.022 77.3895 123.923 76.0917C139.969 71.8424 153.658 75.5649 157.002 69.6234C157.35 69.005 156.823 67.9643 155.827 67.34C151.749 64.7859 146.617 59.2818 121.247 62.6827C105.022 64.8578 93.1463 70.1242 91.167 65.8916C89.3747 62.0588 90.2681 55.7007 91.9852 50.8919C93.4115 46.8975 94.3479 42.1544 91.3057 38.6304C90.0126 37.1326 79.3451 35.8506 82.809 34.5165C83.8583 34.1123 88.7827 36.2388 110.233 25.2872C124.867 17.8158 134.118 13.6393 137.3 14.7992C140.236 15.8693 142.908 16.9812 144.589 18.7616C146.126 20.3902 150.131 31.2715 158.257 45.6366C164.318 56.351 170.024 71.8146 177.443 71.47C185.721 71.0855 199.811 73.5693 203.575 68.5238C207.847 62.798 209.909 53.4505 214.226 49.811C220.534 44.4929 230.6 39.9252 234.011 37.9566C238.182 35.5488 247.738 31.183 244.508 30.3803C243.376 30.099 239.943 30.4585 233.299 30.2087C217.076 29.5988 200.938 29.8242 201.175 24.5515C201.591 15.283 203.701 6.63944 201.288 3.64135C199.941 1.96756 194.16 -0.201811 187.122 1.8087C181.947 3.28679 171.858 9.64898 168.258 18.8155C165.36 26.1929 161.617 31.9376 164.424 47.9547C166.63 60.5393 173.403 70.9209 170.811 75.7086C170.354 76.552 169.522 76.9295 168.558 76.8101C166.5 76.5552 161.336 77.827 159.368 74.6854C158.92 73.9709 158.795 73.015 158.874 72.0552C158.953 71.0955 159.091 69.7825 159.832 69.726C163.837 69.4208 172.944 69.5883 170.946 71.6451C168.922 73.7307 165.586 75.9012 163.08 83.0827C161.939 86.3509 160.403 91.334 153.862 118.359C147.322 145.385 136.115 193.009 130.432 219.07C124.748 245.131 124.593 249.496 125.66 262.959C126.726 276.423 128.166 298.468 131.558 314.318C137.078 340.116 140.878 352.972 140.111 352.118C139.545 351.488 133.982 342.637 116.177 334.3C108.617 330.76 96.6942 326.02 89.6429 322.22C79.8226 316.928 68.2329 309.377 64.6851 300.691C60.3907 290.176 54.4774 282.826 52.6727 262.503C51.7703 252.34 52.0355 243.652 49.9133 238.059C48.765 235.033 40.9451 225.843 26.6156 214.861C17.4399 207.83 8.90897 203.497 2.09162 200.652C0.166746 199.849 1.17078 200.328 2.18771 200.499C4.14414 200.829 8.28118 196.067 12.8506 197.141C17.5093 198.237 26.4685 201.336 44.1907 216.364C51.2293 222.332 60.4879 230.697 69.9618 240.806C79.4356 250.915 88.8398 262.419 96.7619 272.775C104.684 283.13 110.935 292.066 117.66 305.37C124.384 318.674 131.371 335.826 138.422 350.809C145.473 365.791 152.264 378.295 156.34 385.166C161.286 393.504 163.378 396.551 164.702 395.67C165.99 394.814 167.965 382.449 185.052 364.26C195.539 353.098 212.477 340.823 222.013 332C235.223 319.779 240.604 312.919 243.381 305.219C246.948 295.328 250.817 281.779 252.193 267.588C254.124 247.664 256.739 230.837 261.163 227.083C261.873 226.481 263.168 225.968 263.325 227.602C263.809 232.65 266.851 246.113 257.454 264.329C253.212 272.55 249.242 278.547 242.513 285.136C237.76 289.791 230.27 296.774 220.036 304.479C209.802 312.184 197.206 320.364 181.333 328.871C165.46 337.378 146.726 345.661 135.707 351.405C120.906 359.119 115.352 362.641 112.768 365.716C110.615 368.278 108.808 370.524 108.978 373.583C109.48 382.584 109.884 388.606 116.741 395.982C118.802 398.199 123.695 401.207 129.542 404.287" stroke="black" stroke-width="2" stroke-linecap="round"/>
</svg>
